<svg width="72" height="72" viewBox="0 0 72 72" fill="none" xmlns="http://www.w3.org/2000/svg">
  <g filter="url(#shadow)">
    <!-- Bottom face -->
    <path d="M12 22 L12 56 C12 62 22 66 36 66 C50 66 60 62 60 56 L60 22 Z" fill="#94A3B8"/>
    <!-- Side face (darker edge) -->
    <path d="M48 20 L55 12 L60 22 L60 56 C60 62 52 66 36 66 L36 20 Z" fill="#CBD5E1"/>
    <!-- Top face -->
    <path d="M16 18 L22 10 L50 10 L56 18 L58 34 C58 44 52 54 36 54 C20 54 14 44 14 34 Z" fill="url(#top)"/>
    <!-- Top border -->
    <path d="M16 18 L22 10 L50 10 L56 18 L58 34 C58 44 52 54 36 54 C20 54 14 44 14 34 Z" fill="none" stroke="#94A3B8" stroke-width="1.5" stroke-linejoin="round"/>
  </g>

  <!-- Subtle concave center shadow -->
  <ellipse cx="36" cy="32" rx="18" ry="10" fill="#0F172A" opacity="0.08"/>

  <defs>
    <linearGradient id="top" x1="36" y1="10" x2="36" y2="54" gradientUnits="userSpaceOnUse">
      <stop offset="0" stop-color="#FFFFFF"/>
      <stop offset="0.4" stop-color="#F8FAFC"/>
      <stop offset="1" stop-color="#E2E8F0"/>
    </linearGradient>
    <filter id="shadow" x="0" y="0" width="72" height="72" filterUnits="userSpaceOnUse">
      <feDropShadow dx="0" dy="2" stdDeviation="2" flood-color="#0F172A" flood-opacity="0.15"/>
    </filter>
  </defs>
</svg>